# xmcd
#
# Track frame offsets:
#	150
#	32971
#	45484
#	63077
#	81661
#	101050
#	122533
#	138962
#
# Disc length: 2124 seconds
# Revision: 0
# Processed by: cddbd v1.5.2PL0 Copyright (c) Steve Scherf et al.
# Submitted via: dBpowerAMP V12.0
#
DISCID=68084a08
DTITLE=Garth Brooks - Triple Live, Disc 2
DYEAR=2018
DGENRE=Country
TTITLE0=Friends In Low Places (the extended concert version)
TTITLE1=Two Of A Kind, Workin' On A Full House
TTITLE2=Unanswered Prayers
TTITLE3=People Loving People
TTITLE4=Shameless
TTITLE5=Ain't Goin Down ('Til The Sun Comes Up)
TTITLE6=Tacoma
TTITLE7=Standing Outside The Fire
EXTD=
EXTT0=
EXTT1=
EXTT2=
EXTT3=
EXTT4=
EXTT5=
EXTT6=
EXTT7=
PLAYORDER=
